<svg fill="none" height="180" viewBox="0 0 180 180" width="180" xmlns="http://www.w3.org/2000/svg" xmlns:xlink="http://www.w3.org/1999/xlink"><clipPath id="a"><path d="m26 26h128v128h-128z"/></clipPath><path d="m0 0h180v180h-180z" fill="#fff"/><g clip-path="url(#a)"><path d="m72 130h32v8h-32z" fill="#ff5f00"/><path clip-rule="evenodd" d="m-35 34h66v112h-66zm-8-8h8 66 8v8 112 8h-8-66-8v-8-112zm188 8h66v112h-66zm-8-8h8 66 8v8 112 8h-8-66-8v-8-112zm-33 8h17v112h-66v-112h17v6h32zm-57-8h8 66 8v8 110l-10 10h-64-8v-8-112z" fill="#000" fill-rule="evenodd"/></g></svg>